<svg width="200" height="200" viewBox="0 0 200 200" fill="none" xmlns="http://www.w3.org/2000/svg">
  <!-- Padlock shackle -->
  <path d="M 130 65 C 130 48 116.57 35 100 35 C 83.43 35 70 48 70 65 L 70 85 L 60 85 L 60 65 C 60 42.91 77.91 25 100 25 C 122.09 25 140 42.91 140 65 L 140 85 L 130 85 Z" fill="#1e40af"/>

  <!-- Padlock body -->
  <rect x="55" y="80" width="90" height="90" rx="8" fill="#1e40af"/>

  <!-- Heart shape inside padlock -->
  <path d="M100 145C100 145 75 130 75 110C75 102 80 97 87 97C92 97 96 100 100 105C104 100 108 97 113 97C120 97 125 102 125 110C125 130 100 145 100 145Z" fill="#ffffff"/>
</svg>
